<svg width="1174" height="505" viewBox="0 0 1174 505" fill="none" xmlns="http://www.w3.org/2000/svg">
<path d="M961.903 187.272L901.221 264.002C899.262 266.479 898.944 269.877 900.408 272.675L908.824 288.749C910.068 291.125 912.419 292.72 915.087 292.996L1043.27 306.283C1047.23 306.694 1050.9 304.12 1051.86 300.248L1062.5 257.263C1062.83 255.932 1062.81 254.539 1062.44 253.217L1051.36 212.939C1050.63 210.29 1048.59 208.2 1045.96 207.405L970.494 184.577C967.349 183.625 963.942 184.694 961.903 187.272Z" fill="#E55511"/>
<path d="M1026.05 602.388L910.361 415.7C908.196 412.207 909.03 407.641 912.291 405.14L1152.61 220.749C1158.88 215.942 1167.58 222.157 1165.06 229.643L1040.43 600.721C1038.28 607.141 1029.61 608.145 1026.05 602.388Z" fill="#F7AF1C"/>
<path d="M1049.45 121.391C1055.76 105.523 1107.03 98.0639 1131.87 96.3179C1136.78 97.2423 1146.52 101.823 1146.12 112.754C1145.64 126.417 1142.59 138.911 1119.63 161.413C1096.66 183.915 1080.86 172.003 1062.77 168.6C1044.68 165.196 1041.56 141.226 1049.45 121.391Z" fill="#35C69B"/>
<path d="M211.728 188.55C166.193 174.36 124.936 261.112 110 306.261V505H370.376C373.068 493.175 386.524 468.558 418.818 464.688C459.187 459.85 473.719 420.748 431.736 399.785C389.753 378.823 426.892 361.086 378.45 348.186C330.008 335.286 310.631 367.536 263.804 361.086C216.976 354.636 268.648 206.287 211.728 188.55Z" fill="#35C69B"/>
<path d="M1060.34 286L904.161 403.341C900.862 405.82 899.989 410.401 902.146 413.919L938.37 473" stroke="#FEFEFE" stroke-width="3" stroke-linecap="round" stroke-linejoin="round"/>
<path d="M546.033 432.102C550.928 429.293 565.292 427.807 578.912 443.5C592.532 459.193 586.254 473.4 574.337 483.311C562.419 493.223 539.755 497.848 530.923 473.4C522.092 448.951 541.138 434.91 546.033 432.102Z" fill="#E55511"/>
<path d="M968.428 177.562C967.634 177.326 966.799 177.778 966.562 178.572C966.326 179.366 966.778 180.201 967.572 180.438L968.428 177.562ZM1061.56 239.404C1061.78 240.202 1062.61 240.668 1063.4 240.445C1064.2 240.222 1064.67 239.394 1064.44 238.596L1061.56 239.404ZM1049.11 203.169L1049.54 201.732L1049.11 203.169ZM1054.53 208.683L1053.08 209.087L1054.53 208.683ZM967.572 180.438L1048.68 204.607L1049.54 201.732L968.428 177.562L967.572 180.438ZM1053.08 209.087L1061.56 239.404L1064.44 238.596L1055.97 208.279L1053.08 209.087ZM1048.68 204.607C1050.82 205.245 1052.48 206.936 1053.08 209.087L1055.97 208.279C1055.09 205.136 1052.66 202.664 1049.54 201.732L1048.68 204.607Z" fill="#FEFEFE"/>
<path d="M535.661 415.345C535.966 413.445 538.213 412.587 539.707 413.801L563.879 433.45C565.372 434.664 564.991 437.04 563.193 437.726L534.09 448.835C532.293 449.521 530.426 448.004 530.73 446.104L535.661 415.345Z" stroke="#FEFEFE" stroke-width="3" stroke-linecap="round" stroke-linejoin="round"/>
<path d="M1005.52 299.894C1004.86 301.465 1003.91 302.893 1002.71 304.096L993.902 312.902C993.706 313.097 993.39 313.097 993.195 312.902L975.583 295.29C975.388 295.095 975.388 294.779 975.583 294.583L984.389 285.778C985.592 284.575 987.02 283.621 988.591 282.97C990.163 282.319 991.847 281.984 993.548 281.984C995.249 281.984 996.933 282.319 998.505 282.97C1000.08 283.621 1001.5 284.575 1002.71 285.778C1003.91 286.981 1004.86 288.409 1005.52 289.98C1006.17 291.552 1006.5 293.236 1006.5 294.937C1006.5 296.638 1006.17 298.322 1005.52 299.894Z" stroke="#FEFEFE" stroke-width="3" stroke-linecap="round" stroke-linejoin="round"/>
<path d="M153.943 206.859C135.377 199.999 80.8898 196.368 29.2278 234.7C-22.4341 273.033 1.37879 307.734 46.583 331.945C91.7872 356.155 177.756 367.453 211.255 307.734C244.755 248.016 172.509 213.718 153.943 206.859Z" fill="#F7AF1C"/>
<circle cx="210" cy="235.502" r="17.5" stroke="#FEFEFE" stroke-width="3" stroke-linejoin="round" stroke-dasharray="10 5"/>
<path d="M811 421V461M791 441H831M796.858 426.858L825.142 455.142M825.142 426.858L796.858 455.142" stroke="#FEFEFE" stroke-width="3" stroke-linecap="round"/>
<path d="M262.061 535.82C249.043 523.767 285.072 463.68 342.534 401.611C399.997 339.543 457.133 298.997 470.152 311.049C479.792 319.974 462.538 355.237 429.603 398.14" stroke="#FEFEFE" stroke-width="3" stroke-linecap="round"/>
<path d="M178.5 401.502C178.5 400.674 179.172 400.002 180 400.002H202C202.828 400.002 203.5 400.674 203.5 401.502V424.502C203.5 425.331 202.828 426.002 202 426.002H180C179.172 426.002 178.5 425.331 178.5 424.502V401.502Z" stroke="#FEFEFE" stroke-width="3"/>
<path d="M1012.85 8.30571L1000.24 38.7864M991.306 17.2404L1021.79 29.8518" stroke="#FEFEFE" stroke-width="3" stroke-linecap="round"/>
<path d="M289.91 176.489L257.242 195.35" stroke="#FEFEFE" stroke-width="3" stroke-linecap="round"/>
<rect x="167.175" y="27.3259" width="84.2994" height="44.8986" rx="8" transform="rotate(15 167.175 27.3259)" fill="#E55511"/>
<path d="M295.6 216.97H257.6" stroke="#FEFEFE" stroke-width="3" stroke-linecap="round"/>
<path d="M256.861 149L238 181.668" stroke="#FEFEFE" stroke-width="3" stroke-linecap="round"/>
<path d="M155.412 31.7898L191.879 31.4683M157.775 40.792L189.516 22.4661M157.935 22.7445L189.355 40.5136" stroke="#FEFEFE" stroke-width="2" stroke-linecap="round"/>
<path d="M772 348V348C772 334.818 783.695 324.704 796.739 326.604L809.875 328.518C829.063 331.314 845.823 315.444 844.078 296.132L841.552 268.174C840.718 258.95 847.982 251 857.244 251V251C865.946 251 873 243.946 873 235.244V229" stroke="#FEFEFE" stroke-width="3" stroke-linecap="round" stroke-linejoin="round"/>
</svg>
